<?xml version="1.0" encoding="utf-8"?>
<!-- Generator: Adobe Illustrator 25.2.1, SVG Export Plug-In . SVG Version: 6.00 Build 0)  -->
<svg version="1.1" id="Layer_1" xmlns="http://www.w3.org/2000/svg" xmlns:xlink="http://www.w3.org/1999/xlink" x="0px" y="0px"
	 viewBox="0 0 841.89 595.28" style="enable-background:new 0 0 841.89 595.28;" xml:space="preserve">
<style type="text/css">
	.st0{clip-path:url(#SVGID_2_);fill:#FFFFFF;}
	.st1{fill:#FFFFFF;}
	.st2{clip-path:url(#SVGID_4_);fill:#ED6D05;}
	.st3{clip-path:url(#SVGID_4_);}
	.st4{clip-path:url(#SVGID_4_);fill:#FFFFFF;}
	.st5{font-family:'Jost-Medium';}
	.st6{font-size:85.0908px;}
	.st7{clip-path:url(#SVGID_6_);fill:#FFFFFF;}
	.st8{letter-spacing:-22;}
	.st9{letter-spacing:-20;}
	.st10{letter-spacing:2;}
	.st11{letter-spacing:-4;}
	.st12{clip-path:url(#SVGID_8_);fill:#ED6D05;}
	.st13{clip-path:url(#SVGID_8_);}
	.st14{clip-path:url(#SVGID_8_);fill:#FFFFFF;}
	.st15{clip-path:url(#SVGID_10_);fill:#FFFFFF;}
	.st16{clip-path:url(#SVGID_12_);fill:#ED6D05;}
	.st17{clip-path:url(#SVGID_12_);}
	.st18{clip-path:url(#SVGID_12_);fill:#FFFFFF;}
	.st19{clip-path:url(#SVGID_14_);fill:#FFFFFF;}
	.st20{clip-path:url(#SVGID_16_);fill:#ED6D05;}
	.st21{clip-path:url(#SVGID_16_);}
	.st22{clip-path:url(#SVGID_16_);fill:#FFFFFF;}
	.st23{clip-path:url(#SVGID_18_);fill:#FFFFFF;}
	.st24{clip-path:url(#SVGID_20_);fill:#ED6D05;}
	.st25{clip-path:url(#SVGID_20_);}
	.st26{clip-path:url(#SVGID_20_);fill:#FFFFFF;}
</style>
<rect y="229.61" width="841.89" height="612.28"/>
<text transform="matrix(1 0 0 1 303.1455 518.3031)"><tspan x="0" y="0" class="st1 st5 st6">O</tspan><tspan x="69.09" y="0" class="st1 st5 st6">RANG</tspan><tspan x="315.77" y="0" class="st1 st5 st6">E</tspan></text>
<text transform="matrix(1 0 0 1 303.1455 603.139)" class="st1 st5 st6"> </text>
<g>
	<defs>
		<rect id="SVGID_5_" y="229.61" width="841.89" height="612.28"/>
	</defs>
	<clipPath id="SVGID_2_">
		<use xlink:href="#SVGID_5_"  style="overflow:visible;"/>
	</clipPath>
	<path class="st0" d="M308.85,554.61c1.53-3.74,3.7-6.99,6.51-9.74c2.81-2.75,6.1-4.91,9.87-6.47c3.77-1.56,7.84-2.34,12.21-2.34
		c4.48,0,8.59,0.78,12.34,2.34c3.74,1.56,7.02,3.72,9.83,6.47c2.81,2.75,4.98,6,6.51,9.74c1.53,3.74,2.3,7.86,2.3,12.34
		c0,4.42-0.77,8.54-2.3,12.34c-1.53,3.8-3.69,7.09-6.47,9.87c-2.78,2.78-6.04,4.95-9.79,6.51c-3.74,1.56-7.89,2.34-12.42,2.34
		c-4.42,0-8.52-0.78-12.3-2.34c-3.77-1.56-7.05-3.73-9.83-6.51c-2.78-2.78-4.93-6.07-6.47-9.87c-1.53-3.8-2.3-7.91-2.3-12.34
		C306.55,562.46,307.31,558.35,308.85,554.61 M319.82,577.84c1.76,3.18,4.15,5.69,7.19,7.53c3.03,1.84,6.51,2.77,10.42,2.77
		c3.97,0,7.47-0.92,10.51-2.77c3.04-1.84,5.42-4.35,7.15-7.53c1.73-3.18,2.6-6.81,2.6-10.89c0-4.08-0.85-7.73-2.55-10.93
		c-1.7-3.2-4.07-5.71-7.11-7.53c-3.04-1.82-6.57-2.72-10.59-2.72c-3.91,0-7.39,0.91-10.42,2.72c-3.03,1.82-5.43,4.33-7.19,7.53
		c-1.76,3.21-2.64,6.85-2.64,10.93C317.18,571.03,318.06,574.66,319.82,577.84"/>
</g>
<rect x="300.6" y="561.36" transform="matrix(0.398 -0.9174 0.9174 0.398 -317.0185 650.9819)" class="st1" width="73.76" height="11.34"/>
<text transform="matrix(1 0 0 1 346.2852 603.1224)"><tspan x="0" y="0" class="st1 st5 st6 st8">     </tspan><tspan x="17.44" y="0" class="st1 st5 st6 st9"> </tspan><tspan x="22.63" y="0" class="st1 st5 st6">A</tspan><tspan x="81.34" y="0" class="st1 st5 st6 st10">K</tspan><tspan x="136.56" y="0" class="st1 st5 st6 st11">T</tspan><tspan x="175.28" y="0" class="st1 st5 st6">ORY</tspan></text>
<g>
	<defs>
		<rect id="SVGID_7_" y="229.61" width="841.89" height="612.28"/>
	</defs>
	<clipPath id="SVGID_4_">
		<use xlink:href="#SVGID_7_"  style="overflow:visible;"/>
	</clipPath>
	<path class="st2" d="M205.7,602.55c44.72,0,80.97-36.25,80.97-80.97s-36.25-80.97-80.97-80.97s-80.97,36.25-80.97,80.97
		S160.98,602.55,205.7,602.55"/>
	<path class="st3" d="M205.7,558.46c20.37,0,36.88-16.51,36.88-36.88c0-20.37-16.51-36.88-36.88-36.88s-36.88,16.51-36.88,36.88
		C168.82,541.94,185.33,558.46,205.7,558.46"/>
	<path class="st3" d="M198.45,557.73c2.35,0.47,4.77,0.72,7.25,0.72c20.37,0,36.88-16.51,36.88-36.88
		c0-12.37-6.11-23.28-15.45-29.98L198.45,557.73z M214.23,485.72c-2.74-0.65-5.59-1.03-8.54-1.03c-20.37,0-36.88,16.51-36.88,36.88
		c0,12.84,6.57,24.14,16.53,30.75L214.23,485.72z"/>
	<path class="st4" d="M238.09,472.5l8.95-20.63c-5.65-3.36-11.74-6.05-18.17-7.97l-8.93,20.58c-4.56-1.14-9.33-1.78-14.24-1.78
		c-32.35,0-58.58,26.23-58.58,58.58c0,20.65,10.7,38.77,26.84,49.2l-9.08,20.93c5.67,3.32,11.79,5.96,18.23,7.83l9.11-21
		c4.33,1.03,8.83,1.61,13.48,1.61c32.35,0,58.58-26.23,58.58-58.58C264.28,500.91,253.87,483,238.09,472.5"/>
	<path class="st3" d="M202.83,558.31c0.95,0.07,1.9,0.14,2.87,0.14c20.37,0,36.88-16.51,36.88-36.88c0-10.78-4.65-20.44-12.02-27.19
		L202.83,558.31z M209.93,484.95c-1.39-0.16-2.8-0.26-4.24-0.26c-20.37,0-36.88,16.51-36.88,36.88c0,11.27,5.07,21.35,13.04,28.11
		L209.93,484.95z"/>
</g>
<rect y="229.61" width="841.89" height="612.28"/>
<text transform="matrix(1 0 0 1 303.1455 518.3031)"><tspan x="0" y="0" class="st1 st5 st6">O</tspan><tspan x="69.09" y="0" class="st1 st5 st6">RANG</tspan><tspan x="315.77" y="0" class="st1 st5 st6">E</tspan></text>
<text transform="matrix(1 0 0 1 303.1455 603.139)" class="st1 st5 st6"> </text>
<g>
	<defs>
		<rect id="SVGID_9_" y="229.61" width="841.89" height="612.28"/>
	</defs>
	<clipPath id="SVGID_6_">
		<use xlink:href="#SVGID_9_"  style="overflow:visible;"/>
	</clipPath>
	<path class="st7" d="M308.85,554.61c1.53-3.74,3.7-6.99,6.51-9.74c2.81-2.75,6.1-4.91,9.87-6.47c3.77-1.56,7.84-2.34,12.21-2.34
		c4.48,0,8.59,0.78,12.34,2.34c3.74,1.56,7.02,3.72,9.83,6.47c2.81,2.75,4.98,6,6.51,9.74c1.53,3.74,2.3,7.86,2.3,12.34
		c0,4.42-0.77,8.54-2.3,12.34c-1.53,3.8-3.69,7.09-6.47,9.87c-2.78,2.78-6.04,4.95-9.79,6.51c-3.74,1.56-7.89,2.34-12.42,2.34
		c-4.42,0-8.52-0.78-12.3-2.34c-3.77-1.56-7.05-3.73-9.83-6.51c-2.78-2.78-4.93-6.07-6.47-9.87c-1.53-3.8-2.3-7.91-2.3-12.34
		C306.55,562.46,307.31,558.35,308.85,554.61 M319.82,577.84c1.76,3.18,4.15,5.69,7.19,7.53c3.03,1.84,6.51,2.77,10.42,2.77
		c3.97,0,7.47-0.92,10.51-2.77c3.04-1.84,5.42-4.35,7.15-7.53c1.73-3.18,2.6-6.81,2.6-10.89c0-4.08-0.85-7.73-2.55-10.93
		c-1.7-3.2-4.07-5.71-7.11-7.53c-3.04-1.82-6.57-2.72-10.59-2.72c-3.91,0-7.39,0.91-10.42,2.72c-3.03,1.82-5.43,4.33-7.19,7.53
		c-1.76,3.21-2.64,6.85-2.64,10.93C317.18,571.03,318.06,574.66,319.82,577.84"/>
</g>
<rect x="300.6" y="561.36" transform="matrix(0.398 -0.9174 0.9174 0.398 -317.0185 650.9819)" class="st1" width="73.76" height="11.34"/>
<text transform="matrix(1 0 0 1 346.2852 603.1224)"><tspan x="0" y="0" class="st1 st5 st6 st8">     </tspan><tspan x="17.44" y="0" class="st1 st5 st6 st9"> </tspan><tspan x="22.63" y="0" class="st1 st5 st6">A</tspan><tspan x="81.34" y="0" class="st1 st5 st6 st10">K</tspan><tspan x="136.56" y="0" class="st1 st5 st6 st11">T</tspan><tspan x="175.28" y="0" class="st1 st5 st6">ORY</tspan></text>
<g>
	<defs>
		<rect id="SVGID_11_" y="229.61" width="841.89" height="612.28"/>
	</defs>
	<clipPath id="SVGID_8_">
		<use xlink:href="#SVGID_11_"  style="overflow:visible;"/>
	</clipPath>
	<path class="st12" d="M205.7,602.55c44.72,0,80.97-36.25,80.97-80.97s-36.25-80.97-80.97-80.97s-80.97,36.25-80.97,80.97
		S160.98,602.55,205.7,602.55"/>
	<path class="st13" d="M205.7,558.46c20.37,0,36.88-16.51,36.88-36.88c0-20.37-16.51-36.88-36.88-36.88s-36.88,16.51-36.88,36.88
		C168.82,541.94,185.33,558.46,205.7,558.46"/>
	<path class="st13" d="M198.45,557.73c2.35,0.47,4.77,0.72,7.25,0.72c20.37,0,36.88-16.51,36.88-36.88
		c0-12.37-6.11-23.28-15.45-29.98L198.45,557.73z M214.23,485.72c-2.74-0.65-5.59-1.03-8.54-1.03c-20.37,0-36.88,16.51-36.88,36.88
		c0,12.84,6.57,24.14,16.53,30.75L214.23,485.72z"/>
	<path class="st14" d="M238.09,472.5l8.95-20.63c-5.65-3.36-11.74-6.05-18.17-7.97l-8.93,20.58c-4.56-1.14-9.33-1.78-14.24-1.78
		c-32.35,0-58.58,26.23-58.58,58.58c0,20.65,10.7,38.77,26.84,49.2l-9.08,20.93c5.67,3.32,11.79,5.96,18.23,7.83l9.11-21
		c4.33,1.03,8.83,1.61,13.48,1.61c32.35,0,58.58-26.23,58.58-58.58C264.28,500.91,253.87,483,238.09,472.5"/>
	<path class="st13" d="M202.83,558.31c0.95,0.07,1.9,0.14,2.87,0.14c20.37,0,36.88-16.51,36.88-36.88
		c0-10.78-4.65-20.44-12.02-27.19L202.83,558.31z M209.93,484.95c-1.39-0.16-2.8-0.26-4.24-0.26c-20.37,0-36.88,16.51-36.88,36.88
		c0,11.27,5.07,21.35,13.04,28.11L209.93,484.95z"/>
</g>
<rect y="229.61" width="841.89" height="612.28"/>
<text transform="matrix(1 0 0 1 303.1455 518.3031)"><tspan x="0" y="0" class="st1 st5 st6">O</tspan><tspan x="69.09" y="0" class="st1 st5 st6">RANG</tspan><tspan x="315.77" y="0" class="st1 st5 st6">E</tspan></text>
<text transform="matrix(1 0 0 1 303.1455 603.139)" class="st1 st5 st6"> </text>
<g>
	<defs>
		<rect id="SVGID_13_" y="229.61" width="841.89" height="612.28"/>
	</defs>
	<clipPath id="SVGID_10_">
		<use xlink:href="#SVGID_13_"  style="overflow:visible;"/>
	</clipPath>
	<path class="st15" d="M308.85,554.61c1.53-3.74,3.7-6.99,6.51-9.74c2.81-2.75,6.1-4.91,9.87-6.47c3.77-1.56,7.84-2.34,12.21-2.34
		c4.48,0,8.59,0.78,12.34,2.34c3.74,1.56,7.02,3.72,9.83,6.47c2.81,2.75,4.98,6,6.51,9.74c1.53,3.74,2.3,7.86,2.3,12.34
		c0,4.42-0.77,8.54-2.3,12.34c-1.53,3.8-3.69,7.09-6.47,9.87c-2.78,2.78-6.04,4.95-9.79,6.51c-3.74,1.56-7.89,2.34-12.42,2.34
		c-4.42,0-8.52-0.78-12.3-2.34c-3.77-1.56-7.05-3.73-9.83-6.51c-2.78-2.78-4.93-6.07-6.47-9.87c-1.53-3.8-2.3-7.91-2.3-12.34
		C306.55,562.46,307.31,558.35,308.85,554.61 M319.82,577.84c1.76,3.18,4.15,5.69,7.19,7.53c3.03,1.84,6.51,2.77,10.42,2.77
		c3.97,0,7.47-0.92,10.51-2.77c3.04-1.84,5.42-4.35,7.15-7.53c1.73-3.18,2.6-6.81,2.6-10.89c0-4.08-0.85-7.73-2.55-10.93
		c-1.7-3.2-4.07-5.71-7.11-7.53c-3.04-1.82-6.57-2.72-10.59-2.72c-3.91,0-7.39,0.91-10.42,2.72c-3.03,1.82-5.43,4.33-7.19,7.53
		c-1.76,3.21-2.64,6.85-2.64,10.93C317.18,571.03,318.06,574.66,319.82,577.84"/>
</g>
<rect x="300.6" y="561.36" transform="matrix(0.398 -0.9174 0.9174 0.398 -317.0185 650.9819)" class="st1" width="73.76" height="11.34"/>
<text transform="matrix(1 0 0 1 346.2852 603.1224)"><tspan x="0" y="0" class="st1 st5 st6 st8">     </tspan><tspan x="17.44" y="0" class="st1 st5 st6 st9"> </tspan><tspan x="22.63" y="0" class="st1 st5 st6">A</tspan><tspan x="81.34" y="0" class="st1 st5 st6 st10">K</tspan><tspan x="136.56" y="0" class="st1 st5 st6 st11">T</tspan><tspan x="175.28" y="0" class="st1 st5 st6">ORY</tspan></text>
<g>
	<defs>
		<rect id="SVGID_15_" y="229.61" width="841.89" height="612.28"/>
	</defs>
	<clipPath id="SVGID_12_">
		<use xlink:href="#SVGID_15_"  style="overflow:visible;"/>
	</clipPath>
	<path class="st16" d="M205.7,602.55c44.72,0,80.97-36.25,80.97-80.97s-36.25-80.97-80.97-80.97s-80.97,36.25-80.97,80.97
		S160.98,602.55,205.7,602.55"/>
	<path class="st17" d="M205.7,558.46c20.37,0,36.88-16.51,36.88-36.88c0-20.37-16.51-36.88-36.88-36.88s-36.88,16.51-36.88,36.88
		C168.82,541.94,185.33,558.46,205.7,558.46"/>
	<path class="st17" d="M198.45,557.73c2.35,0.47,4.77,0.72,7.25,0.72c20.37,0,36.88-16.51,36.88-36.88
		c0-12.37-6.11-23.28-15.45-29.98L198.45,557.73z M214.23,485.72c-2.74-0.65-5.59-1.03-8.54-1.03c-20.37,0-36.88,16.51-36.88,36.88
		c0,12.84,6.57,24.14,16.53,30.75L214.23,485.72z"/>
	<path class="st18" d="M238.09,472.5l8.95-20.63c-5.65-3.36-11.74-6.05-18.17-7.97l-8.93,20.58c-4.56-1.14-9.33-1.78-14.24-1.78
		c-32.35,0-58.58,26.23-58.58,58.58c0,20.65,10.7,38.77,26.84,49.2l-9.08,20.93c5.67,3.32,11.79,5.96,18.23,7.83l9.11-21
		c4.33,1.03,8.83,1.61,13.48,1.61c32.35,0,58.58-26.23,58.58-58.58C264.28,500.91,253.87,483,238.09,472.5"/>
	<path class="st17" d="M202.83,558.31c0.95,0.07,1.9,0.14,2.87,0.14c20.37,0,36.88-16.51,36.88-36.88
		c0-10.78-4.65-20.44-12.02-27.19L202.83,558.31z M209.93,484.95c-1.39-0.16-2.8-0.26-4.24-0.26c-20.37,0-36.88,16.51-36.88,36.88
		c0,11.27,5.07,21.35,13.04,28.11L209.93,484.95z"/>
</g>
<rect y="-1.51" width="841.89" height="612.28"/>
<text transform="matrix(1 0 0 1 303.1455 287.192)"><tspan x="0" y="0" class="st1 st5 st6">O</tspan><tspan x="69.09" y="0" class="st1 st5 st6">RANG</tspan><tspan x="315.77" y="0" class="st1 st5 st6">E</tspan></text>
<text transform="matrix(1 0 0 1 303.1455 372.0279)" class="st1 st5 st6"> </text>
<g>
	<defs>
		<rect id="SVGID_17_" y="-1.5" width="841.89" height="612.28"/>
	</defs>
	<clipPath id="SVGID_14_">
		<use xlink:href="#SVGID_17_"  style="overflow:visible;"/>
	</clipPath>
	<path class="st19" d="M308.85,323.5c1.53-3.74,3.7-6.99,6.51-9.74c2.81-2.75,6.1-4.91,9.87-6.47c3.77-1.56,7.84-2.34,12.21-2.34
		c4.48,0,8.59,0.78,12.34,2.34c3.74,1.56,7.02,3.72,9.83,6.47c2.81,2.75,4.98,6,6.51,9.74c1.53,3.74,2.3,7.86,2.3,12.34
		c0,4.43-0.77,8.54-2.3,12.34c-1.53,3.8-3.69,7.09-6.47,9.87c-2.78,2.78-6.04,4.95-9.79,6.51c-3.74,1.56-7.89,2.34-12.42,2.34
		c-4.42,0-8.52-0.78-12.3-2.34c-3.77-1.56-7.05-3.73-9.83-6.51c-2.78-2.78-4.93-6.07-6.47-9.87c-1.53-3.8-2.3-7.91-2.3-12.34
		C306.55,331.35,307.31,327.24,308.85,323.5 M319.82,346.73c1.76,3.18,4.15,5.69,7.19,7.53c3.03,1.84,6.51,2.76,10.42,2.76
		c3.97,0,7.47-0.92,10.51-2.76c3.04-1.84,5.42-4.35,7.15-7.53c1.73-3.18,2.6-6.81,2.6-10.89c0-4.08-0.85-7.73-2.55-10.93
		c-1.7-3.2-4.07-5.71-7.11-7.53c-3.04-1.82-6.57-2.72-10.59-2.72c-3.91,0-7.39,0.91-10.42,2.72c-3.03,1.82-5.43,4.33-7.19,7.53
		c-1.76,3.21-2.64,6.85-2.64,10.93C317.18,339.92,318.06,343.55,319.82,346.73"/>
</g>
<rect x="300.6" y="330.25" transform="matrix(0.398 -0.9174 0.9174 0.398 -104.9961 511.8426)" class="st1" width="73.76" height="11.34"/>
<text transform="matrix(1 0 0 1 346.2852 372.0113)"><tspan x="0" y="0" class="st1 st5 st6 st8">     </tspan><tspan x="17.44" y="0" class="st1 st5 st6 st9"> </tspan><tspan x="22.63" y="0" class="st1 st5 st6">A</tspan><tspan x="81.34" y="0" class="st1 st5 st6 st10">K</tspan><tspan x="136.56" y="0" class="st1 st5 st6 st11">T</tspan><tspan x="175.28" y="0" class="st1 st5 st6">ORY</tspan></text>
<g>
	<defs>
		<rect id="SVGID_19_" y="-1.5" width="841.89" height="612.28"/>
	</defs>
	<clipPath id="SVGID_16_">
		<use xlink:href="#SVGID_19_"  style="overflow:visible;"/>
	</clipPath>
	<path class="st20" d="M205.7,371.44c44.72,0,80.97-36.25,80.97-80.97c0-44.72-36.25-80.98-80.97-80.98s-80.97,36.25-80.97,80.98
		C124.72,335.18,160.98,371.44,205.7,371.44"/>
	<path class="st21" d="M205.7,327.34c20.37,0,36.88-16.51,36.88-36.88c0-20.37-16.51-36.88-36.88-36.88s-36.88,16.51-36.88,36.88
		C168.82,310.83,185.33,327.34,205.7,327.34"/>
	<path class="st21" d="M198.45,326.62c2.35,0.47,4.77,0.72,7.25,0.72c20.37,0,36.88-16.51,36.88-36.88
		c0-12.37-6.11-23.28-15.45-29.98L198.45,326.62z M214.23,254.61c-2.74-0.65-5.59-1.03-8.54-1.03c-20.37,0-36.88,16.51-36.88,36.88
		c0,12.84,6.57,24.14,16.53,30.75L214.23,254.61z"/>
	<path class="st22" d="M238.09,241.39l8.95-20.63c-5.65-3.36-11.74-6.05-18.17-7.97l-8.93,20.58c-4.56-1.14-9.33-1.78-14.24-1.78
		c-32.35,0-58.58,26.23-58.58,58.58c0,20.65,10.7,38.77,26.84,49.2l-9.08,20.93c5.67,3.32,11.79,5.96,18.23,7.83l9.11-21
		c4.33,1.02,8.83,1.61,13.48,1.61c32.35,0,58.58-26.23,58.58-58.58C264.28,269.8,253.87,251.89,238.09,241.39"/>
	<path class="st21" d="M202.83,327.2c0.95,0.07,1.9,0.14,2.87,0.14c20.37,0,36.88-16.51,36.88-36.88c0-10.78-4.65-20.44-12.02-27.19
		L202.83,327.2z M209.93,253.84c-1.39-0.16-2.8-0.26-4.24-0.26c-20.37,0-36.88,16.51-36.88,36.88c0,11.27,5.07,21.35,13.04,28.11
		L209.93,253.84z"/>
</g>
</svg>
