<?xml version="1.0" encoding="utf-8"?>
<!-- Generator: Adobe Illustrator 25.2.1, SVG Export Plug-In . SVG Version: 6.00 Build 0)  -->
<svg version="1.1" id="Layer_1" xmlns="http://www.w3.org/2000/svg" xmlns:xlink="http://www.w3.org/1999/xlink" x="0px" y="0px"
	 viewBox="0 0 841.89 595.28" style="enable-background:new 0 0 841.89 595.28;" xml:space="preserve">
<style type="text/css">
	.st0{clip-path:url(#SVGID_2_);fill:#FFFFFF;}
	.st1{fill:#FFFFFF;}
	.st2{clip-path:url(#SVGID_4_);fill:#ED6D05;}
	.st3{clip-path:url(#SVGID_4_);}
	.st4{clip-path:url(#SVGID_4_);fill:#FFFFFF;}
	.st5{clip-path:url(#SVGID_6_);fill:#FFFFFF;}
	.st6{clip-path:url(#SVGID_8_);fill:#ED6D05;}
	.st7{clip-path:url(#SVGID_8_);}
	.st8{clip-path:url(#SVGID_8_);fill:#FFFFFF;}
	.st9{clip-path:url(#SVGID_10_);fill:#FFFFFF;}
	.st10{clip-path:url(#SVGID_12_);fill:#ED6D05;}
	.st11{clip-path:url(#SVGID_12_);}
	.st12{clip-path:url(#SVGID_12_);fill:#FFFFFF;}
	.st13{clip-path:url(#SVGID_14_);fill:#FFFFFF;}
	.st14{clip-path:url(#SVGID_16_);fill:#ED6D05;}
	.st15{clip-path:url(#SVGID_16_);}
	.st16{clip-path:url(#SVGID_16_);fill:#FFFFFF;}
	.st17{clip-path:url(#SVGID_18_);fill:#FFFFFF;}
	.st18{clip-path:url(#SVGID_20_);fill:#ED6D05;}
	.st19{clip-path:url(#SVGID_20_);}
	.st20{clip-path:url(#SVGID_20_);fill:#FFFFFF;}
	.st21{clip-path:url(#SVGID_22_);fill:#426F6D;}
	.st22{clip-path:url(#SVGID_22_);fill:#B96E6C;}
	.st23{fill:#426F6D;}
	.st24{fill:#979461;}
	.st25{fill:#CA835E;}
	.st26{fill:#629B6C;}
	.st27{clip-path:url(#SVGID_26_);fill:#CA835E;}
	.st28{fill:#B96E6C;}
	.st29{font-family:'CodeNext-ExtraBold';}
	.st30{font-size:115.1123px;}
	.st31{clip-path:url(#SVGID_28_);}
	.st32{clip-path:url(#SVGID_30_);}
	.st33{clip-path:url(#SVGID_32_);}
	.st34{clip-path:url(#SVGID_34_);}
	.st35{clip-path:url(#SVGID_36_);}
</style>
<text transform="matrix(1 0 0 1 168.0203 290.5049)" class="st25 st29 st30">M</text>
<g>
	<defs>
		<rect id="SVGID_27_" x="108.64" y="162.76" width="707.09" height="266.99"/>
	</defs>
	<clipPath id="SVGID_2_">
		<use xlink:href="#SVGID_27_"  style="overflow:visible;"/>
	</clipPath>
	<g style="clip-path:url(#SVGID_2_);">
		<text transform="matrix(1 0 0 1 250.3255 271.1406)" class="st23 st29 st30">i</text>
	</g>
	<g style="clip-path:url(#SVGID_2_);">
		<text transform="matrix(1 0 0 1 272.657 271.1406)" class="st28 st29 st30">s</text>
	</g>
	<g style="clip-path:url(#SVGID_2_);">
		<text transform="matrix(1 0 0 1 320.8889 268.7236)" class="st24 st29 st30">h</text>
	</g>
</g>
<text transform="matrix(1 0 0 1 385.4627 277.0166)" class="st25 st29 st30">o</text>
<g>
	<defs>
		<rect id="SVGID_29_" x="108.64" y="162.76" width="707.09" height="266.99"/>
	</defs>
	<clipPath id="SVGID_4_">
		<use xlink:href="#SVGID_29_"  style="overflow:visible;"/>
	</clipPath>
	<g class="st3">
		<text transform="matrix(1 0 0 1 431.5071 264.0918)" class="st23 st29 st30">‘</text>
	</g>
	<g class="st3">
		<text transform="matrix(1 0 0 1 453.3792 261.2138)" class="st26 st29 st30">s</text>
	</g>
</g>
<text transform="matrix(1 0 0 1 251.0286 329.416)" class="st26 st29 st30">m</text>
<text transform="matrix(1 0 0 1 354.284 332.9843)" class="st23 st29 st30">o</text>
<text transform="matrix(1 0 0 1 416.4446 339.3154)" class="st28 st29 st30">d</text>
<text transform="matrix(1 0 0 1 479.1809 348.7549)" class="st25 st29 st30">i</text>
<text transform="matrix(1 0 0 1 503.8147 355.0859)" class="st23 st29 st30">f</text>
<text transform="matrix(1 0 0 1 542.263 345.6465)" class="st24 st29 st30">i</text>
<text transform="matrix(1 0 0 1 565.7454 329.8759)" class="st23 st29 st30">e</text>
<text transform="matrix(1 0 0 1 628.3665 336.208)" class="st25 st29 st30">d</text>
<g>
	<defs>
		<rect id="SVGID_31_" x="108.64" y="162.76" width="707.09" height="266.99"/>
	</defs>
	<clipPath id="SVGID_6_">
		<use xlink:href="#SVGID_31_"  style="overflow:visible;"/>
	</clipPath>
	<g style="clip-path:url(#SVGID_6_);">
		<text transform="matrix(1 0 0 1 108.6399 386.998)" class="st26 st29 st30">m</text>
	</g>
	<g style="clip-path:url(#SVGID_6_);">
		<text transform="matrix(1 0 0 1 208.4422 405.416)" class="st28 st29 st30">i</text>
	</g>
</g>
<text transform="matrix(1 0 0 1 228.4695 382.4052)" class="st25 st29 st30">n</text>
<g>
	<defs>
		<rect id="SVGID_33_" x="108.64" y="162.76" width="707.09" height="266.99"/>
	</defs>
	<clipPath id="SVGID_8_">
		<use xlink:href="#SVGID_33_"  style="overflow:visible;"/>
	</clipPath>
	<g class="st7">
		<text transform="matrix(1 0 0 1 289.5926 407.6289)" class="st23 st29 st30">d</text>
	</g>
	<g class="st7">
		<text transform="matrix(1 0 0 1 355.782 400.7226)" class="st28 st29 st30">s</text>
	</g>
	<g class="st7">
		<text transform="matrix(1 0 0 1 406.3162 404.4062)" class="st23 st29 st30">c</text>
	</g>
	<g class="st7">
		<text transform="matrix(1 0 0 1 466.8655 407.5136)" class="st26 st29 st30">a</text>
	</g>
</g>
<text transform="matrix(1 0 0 1 528.5618 388.7109)" class="st28 st29 st30">p</text>
<text transform="matrix(1 0 0 1 595.9026 388.0205)" class="st24 st29 st30">e</text>
<g>
	<defs>
		<rect id="SVGID_35_" x="108.64" y="162.76" width="707.09" height="266.99"/>
	</defs>
	<clipPath id="SVGID_10_">
		<use xlink:href="#SVGID_35_"  style="overflow:visible;"/>
	</clipPath>
	<g style="clip-path:url(#SVGID_10_);">
		<text transform="matrix(1 0 0 1 657.3704 398.1699)" class="st26 st29 st30">s</text>
	</g>
</g>
</svg>
