<?xml version="1.0" encoding="utf-8"?>
<!-- Generator: Adobe Illustrator 25.2.1, SVG Export Plug-In . SVG Version: 6.00 Build 0)  -->
<svg version="1.1" id="Layer_1" xmlns="http://www.w3.org/2000/svg" xmlns:xlink="http://www.w3.org/1999/xlink" x="0px" y="0px"
	 viewBox="0 0 841.89 595.28" style="enable-background:new 0 0 841.89 595.28;" xml:space="preserve">
<style type="text/css">
	.st0{clip-path:url(#SVGID_2_);fill:#FFFFFF;}
	.st1{fill:#FFFFFF;}
	.st2{clip-path:url(#SVGID_4_);fill:#ED6D05;}
	.st3{clip-path:url(#SVGID_4_);}
	.st4{clip-path:url(#SVGID_4_);fill:#FFFFFF;}
	.st5{clip-path:url(#SVGID_6_);fill:#FFFFFF;}
	.st6{clip-path:url(#SVGID_8_);fill:#ED6D05;}
	.st7{clip-path:url(#SVGID_8_);}
	.st8{clip-path:url(#SVGID_8_);fill:#FFFFFF;}
	.st9{clip-path:url(#SVGID_10_);fill:#FFFFFF;}
	.st10{clip-path:url(#SVGID_12_);fill:#ED6D05;}
	.st11{clip-path:url(#SVGID_12_);}
	.st12{clip-path:url(#SVGID_12_);fill:#FFFFFF;}
	.st13{clip-path:url(#SVGID_14_);fill:#FFFFFF;}
	.st14{clip-path:url(#SVGID_16_);fill:#ED6D05;}
	.st15{clip-path:url(#SVGID_16_);}
	.st16{clip-path:url(#SVGID_16_);fill:#FFFFFF;}
	.st17{clip-path:url(#SVGID_18_);fill:#FFFFFF;}
	.st18{clip-path:url(#SVGID_20_);fill:#ED6D05;}
	.st19{clip-path:url(#SVGID_20_);}
	.st20{clip-path:url(#SVGID_20_);fill:#FFFFFF;}
	.st21{clip-path:url(#SVGID_22_);}
	.st22{fill:#CA835E;}
	.st23{font-family:'CodeNext-ExtraBold';}
	.st24{font-size:116.1317px;}
	.st25{clip-path:url(#SVGID_22_);fill:#426F6D;}
	.st26{clip-path:url(#SVGID_22_);fill:#B96E6C;}
	.st27{fill:#426F6D;}
	.st28{fill:#979461;}
	.st29{clip-path:url(#SVGID_24_);}
	.st30{fill:#B96E6C;}
	.st31{fill:#629B6C;}
	.st32{clip-path:url(#SVGID_26_);fill:#CA835E;}
</style>
<g>
	<defs>
		<rect id="SVGID_21_" x="111.76" y="153.41" width="601.91" height="290.46"/>
	</defs>
	<clipPath id="SVGID_2_">
		<use xlink:href="#SVGID_21_"  style="overflow:visible;"/>
	</clipPath>
	<g style="clip-path:url(#SVGID_2_);">
		<text transform="matrix(1 0 0 1 111.756 292.3534)" class="st22 st23 st24">М</text>
	</g>
	<path style="clip-path:url(#SVGID_2_);fill:#426F6D;" d="M242.99,201.19h20.56v61.55H244.5l-0.58-6.62
		c-4.53,5.11-11.03,7.78-18.47,7.78c-14.63,0-23.11-9.41-23.11-26.59v-36.12h20.56v33.56c0,6.97,3.37,10.8,8.94,10.8
		c6.85,0,11.15-4.3,11.15-11.27V201.19z"/>
	<path style="clip-path:url(#SVGID_2_);fill:#B96E6C;" d="M342.86,201.19h20.56v61.55h-18.93l-0.7-6.85
		c-4.06,5.11-10.57,8.01-18.35,8.01c-8.48,0-14.87-3.48-18.58-10.1c-5.34,6.74-12.43,10.1-21.25,10.1
		c-14.63,0-23.11-10.34-23.11-27.06v-35.65h20.56v33.91c0,6.97,3.14,10.45,9.17,10.45c6.27,0,10.45-3.95,10.45-10.45v-33.91h20.56
		v33.91c0,6.97,3.14,10.45,9.06,10.45c6.39,0,10.57-4.06,10.57-10.68V201.19z"/>
</g>
<text transform="matrix(1 0 0 1 357.904 271.8593)" class="st22 st23 st24">о</text>
<path class="st27" d="M489.25,247.12c0,15.45-12.77,25.09-31.94,25.09c-22.07,0-32.98-11.96-32.98-32.17v-19.16
	c0-20.09,12.66-32.98,32.75-32.98c18.58,0,29.27,9.29,29.27,22.88c0,6.62-3.02,13.12-9.41,17.19
	C484.61,231.68,489.25,239.11,489.25,247.12z M444.42,219.25v1.86h11.96c6.85,0,10.68-3.25,10.68-8.48c0-5.34-3.83-8.36-9.99-8.36
	C448.49,204.27,444.42,210.19,444.42,219.25z M468.93,245.85c0-5.57-4.3-9.29-11.96-9.29h-12.54v4.99c0,8.48,4.53,13.7,12.54,13.7
	C464.86,255.25,468.93,251.77,468.93,245.85z"/>
<path class="st28" d="M526.53,209.15h20.56v61.55h-19.05l-0.58-6.62c-4.53,5.11-11.03,7.78-18.47,7.78
	c-14.63,0-23.11-9.41-23.11-26.59v-36.12h20.56v33.56c0,6.97,3.37,10.8,8.94,10.8c6.85,0,11.15-4.3,11.15-11.27V209.15z"/>
<path class="st22" d="M647.66,234.58v36.12H627.1v-33.68c0-6.85-3.37-10.68-9.29-10.68c-6.62,0-10.8,4.18-10.8,10.68v33.68h-20.56
	v-33.68c0-6.85-3.25-10.68-9.29-10.68c-6.62,0-10.8,4.18-10.8,10.68v33.68h-20.56v-61.55h18.93l0.7,6.85
	c4.18-5.11,10.8-8.01,18.58-8.01c8.59,0,15.1,3.48,18.7,10.1c5.57-6.74,12.77-10.1,21.6-10.1
	C639.41,207.99,647.66,217.39,647.66,234.58z"/>
<g>
	<defs>
		<rect id="SVGID_23_" x="111.76" y="153.41" width="601.91" height="290.46"/>
	</defs>
	<clipPath id="SVGID_4_">
		<use xlink:href="#SVGID_23_"  style="overflow:visible;"/>
	</clipPath>
	<g class="st3">
		<text transform="matrix(1 0 0 1 641.1964 271.8593)" class="st30 st23 st24">е</text>
	</g>
</g>
<path class="st31" d="M209.21,360v36.12h-20.67v-33.8c0-6.85-3.37-10.57-9.41-10.57c-6.74,0-11.15,3.95-11.15,10.92v33.45h-20.56
	v-61.55h18.93l0.7,6.97c4.53-5.34,11.27-8.13,18.81-8.13C201.78,333.4,209.21,343.97,209.21,360z"/>
<text transform="matrix(1 0 0 1 204.9132 399.4813)" class="st30 st23 st24">е</text>
<g>
	<defs>
		<rect id="SVGID_25_" x="111.76" y="153.41" width="601.91" height="290.46"/>
	</defs>
	<clipPath id="SVGID_6_">
		<use xlink:href="#SVGID_25_"  style="overflow:visible;"/>
	</clipPath>
	<path style="clip-path:url(#SVGID_6_);fill:#CA835E;" d="M313.93,361.89h20.56v61.55h-19.05l-0.58-6.62
		c-4.53,5.11-11.03,7.78-18.47,7.78c-14.63,0-23.11-9.41-23.11-26.59v-36.12h20.56v33.56c0,6.97,3.37,10.8,8.94,10.8
		c6.85,0,11.15-4.3,11.15-11.27V361.89z M322.18,341.56v13.94h-35.65v-13.94H322.18z"/>
</g>
<path class="st27" d="M394.11,391.58c0,15.45-12.31,25.43-30.31,25.43c-18.12,0-30.2-10.68-30.89-27.18h19.74
	c0.35,6.16,5.34,9.29,11.03,9.29c5.34,0,10.22-2.9,10.22-8.71c0-5.34-3.95-8.48-10.8-8.48h-9.76v-15.68h9.41
	c5.34,0,9.06-2.67,9.06-7.55c0-5.46-4.06-8.01-8.59-8.01c-4.53,0-8.71,2.21-9.64,7.78h-18.93c0.58-15.21,12.43-25.43,28.57-25.43
	c16.84,0,28.1,9.29,28.1,23.46c0,6.27-2.55,11.73-7.66,15.68C390.27,376.49,394.11,383.45,394.11,391.58z"/>
<text transform="matrix(1 0 0 1 386.5568 401.8036)" class="st28 st23 st24">а</text>
<polygon class="st27" points="530.56,372.07 549.61,402.15 549.61,404.13 526.5,404.13 512.68,379.97 512.68,404.13 492.47,404.13 
	492.47,379.97 478.65,404.13 455.54,404.13 455.54,402.15 474.59,372.07 457.51,344.55 457.51,342.58 479.46,342.58 492.47,366.03 
	492.47,322.83 512.68,322.83 512.68,366.03 525.8,342.58 547.63,342.58 547.63,344.55 "/>
<path class="st31" d="M587.23,341.41h20.56v61.55h-19.05l-0.58-6.62c-4.53,5.11-11.03,7.78-18.47,7.78
	c-14.63,0-23.11-9.41-23.11-26.59v-36.12h20.56v33.56c0,6.97,3.37,10.8,8.94,10.8c6.85,0,11.15-4.3,11.15-11.27V341.41z"/>
<path class="st31" d="M302.83,319.47c0,15.45-12.31,25.43-30.31,25.43c-18.12,0-30.2-10.68-30.89-27.18h19.74
	c0.35,6.16,5.34,9.29,11.03,9.29c5.34,0,10.22-2.9,10.22-8.71c0-5.34-3.95-8.48-10.8-8.48h-9.76v-15.68h9.41
	c5.34,0,9.06-2.67,9.06-7.55c0-5.46-4.06-8.01-8.59-8.01c-4.53,0-8.71,2.21-9.64,7.78h-18.93c0.58-15.21,12.43-25.43,28.57-25.43
	c16.84,0,28.1,9.29,28.1,23.46c0,6.27-2.55,11.73-7.66,15.68C299,304.37,302.83,311.34,302.83,319.47z"/>
<path class="st28" d="M364.26,318.65c0,15.45-12.77,25.09-31.94,25.09c-22.07,0-32.98-11.96-32.98-32.17v-19.16
	c0-20.09,12.66-32.98,32.75-32.98c18.58,0,29.27,9.29,29.27,22.88c0,6.62-3.02,13.12-9.41,17.19
	C359.62,303.21,364.26,310.64,364.26,318.65z M319.43,290.78v1.86h11.96c6.85,0,10.68-3.25,10.68-8.48c0-5.34-3.83-8.36-9.99-8.36
	C323.5,275.8,319.43,281.72,319.43,290.78z M343.94,317.38c0-5.57-4.3-9.29-11.96-9.29h-12.54v4.99c0,8.48,4.53,13.7,12.54,13.7
	C339.87,326.78,343.94,323.3,343.94,317.38z"/>
<text transform="matrix(1 0 0 1 355.6657 322.8339)" class="st27 st23 st24">у</text>
<polygon class="st22" points="457.75,310.29 477.84,340.25 477.84,342.23 454.49,342.23 439.98,318.89 439.98,342.23 419.42,342.23 
	419.42,260.93 439.98,260.93 439.98,303.21 453.45,280.68 475.98,280.68 475.98,282.65 "/>
<text transform="matrix(1 0 0 1 462.7394 330.8475)" class="st31 st23 st24">о</text>
<path class="st30" d="M595.36,319.81c0,15.45-12.77,25.09-31.94,25.09c-22.07,0-32.98-11.96-32.98-32.17v-19.16
	c0-20.09,12.66-32.98,32.75-32.98c18.58,0,29.27,9.29,29.27,22.88c0,6.62-3.02,13.12-9.41,17.19
	C590.72,304.37,595.36,311.8,595.36,319.81z M550.54,291.94v1.86h11.96c6.85,0,10.68-3.25,10.68-8.48c0-5.34-3.83-8.36-9.99-8.36
	C554.6,276.96,550.54,282.88,550.54,291.94z M575.04,318.54c0-5.57-4.3-9.29-11.96-9.29h-12.54v4.99c0,8.48,4.53,13.7,12.54,13.7
	C570.98,327.94,575.04,324.46,575.04,318.54z"/>
<path class="st28" d="M630.43,269.3h20.56v61.55h-19.05l-0.58-6.62c-4.53,5.11-11.03,7.78-18.47,7.78
	c-14.63,0-23.11-9.41-23.11-26.59V269.3h20.56v33.56c0,6.97,3.37,10.8,8.94,10.8c6.85,0,11.15-4.3,11.15-11.27V269.3z"/>
</svg>
